<svg xmlns="http://www.w3.org/2000/svg" xmlns:xlink="http://www.w3.org/1999/xlink" width="28" height="39" viewBox="0 0 28 39">
  <defs>
    <path id="keeps-your-mac-secure-b" d="M14.6999986,19.9230769 C13.027363,19.9230769 11.5895026,21.160675 11.2667474,22.8788263 C10.9422335,24.5969776 11.8260013,26.3133714 13.3743337,26.9764331 L13.3743337,31.3432238 C13.3743337,32.1092414 13.9681432,32.7307692 14.6999986,32.7307692 C15.4318541,32.7307692 16.0256636,32.1092414 16.0256636,31.3432238 L16.0256636,26.9764331 C17.573996,26.3133714 18.4577726,24.5970239 18.1332499,22.8788263 C17.8104637,21.160675 16.3725901,19.9230769 14.6999986,19.9230769 Z M14.6999986,24.4795913 C14.3565012,24.4795913 14.0475064,24.2627873 13.9163539,23.9303545 C13.7851705,23.5997302 13.8576667,23.2166936 14.0993222,22.9637903 C14.3427054,22.7090462 14.7069186,22.633166 15.0245479,22.7704729 C15.3421772,22.9077798 15.5492903,23.2311796 15.5492903,23.5906973 C15.5458378,24.0803158 15.167817,24.4759975 14.7000251,24.4796052 L14.6999986,24.4795913 Z"/>
    <filter id="keeps-your-mac-secure-a" width="400%" height="264%" x="-150%" y="-82%" filterUnits="objectBoundingBox">
      <feOffset in="SourceAlpha" result="shadowOffsetOuter1"/>
      <feGaussianBlur in="shadowOffsetOuter1" result="shadowBlurOuter1" stdDeviation="3.5"/>
      <feColorMatrix in="shadowBlurOuter1" values="0 0 0 0 0.28627451   0 0 0 0 0.564705882   0 0 0 0 0.88627451  0 0 0 0.596778759 0"/>
    </filter>
  </defs>
  <g fill="none">
    <path fill="#536B84" d="M13.999957,3.14704285e-15 C11.4117275,0.00345998875 8.93114724,1.06399526 7.10085129,2.94634961 C5.27059836,4.8304313 4.24035772,7.38560553 4.23700175,10.0501335 L4.23700175,12.5657118 C1.82857494,12.8252287 0,14.9169274 0,17.4102276 L0,32.128024 C0,34.8183292 2.11933987,37 4.7327822,37 L23.2672178,37 C25.8806601,37 28,34.8183292 28,32.128024 L28,17.4102276 C28,14.9171489 26.1714251,12.8252553 23.7629982,12.5657118 L23.7629982,10.0501335 C23.7596371,7.38578269 22.7294016,4.83047559 20.8991487,2.94634961 C19.0688958,1.06399526 16.5880144,0.00345467386 14.000043,0 L13.999957,3.14704285e-15 Z M6.81860537,10.0500006 C6.81860537,7.40814949 8.18835859,4.96852967 10.4102277,3.64689546 C12.6320969,2.32681143 15.3680322,2.32681143 17.5902886,3.64689546 C19.8121577,4.96870683 21.1819109,7.40814949 21.1819109,10.0500006 L21.1819109,12.5396246 L6.81877747,12.5378942 L6.81860537,10.0500006 Z M25.4184394,17.4097847 L25.4184394,32.1275811 C25.4184394,32.7158058 25.1915498,33.2781204 24.7882049,33.6933456 C24.38486,34.1085708 23.8386367,34.3421157 23.2671748,34.3421157 L4.73273917,34.3421157 C3.54450967,34.3421157 2.58147454,33.3507571 2.58147454,32.1275811 L2.58147454,17.4097847 C2.58147454,16.1866086 3.54450967,15.1952501 4.73273917,15.1952501 L23.2671748,15.1952501 C23.8385937,15.1952501 24.3848428,15.4288127 24.7882049,15.8440202 C25.191567,16.2592277 25.4184394,16.823243 25.4184394,17.4097847 Z"/>
    <use fill="#000" filter="url(#keeps-your-mac-secure-a)" xlink:href="#keeps-your-mac-secure-b"/>
    <use fill="#4990E2" fill-rule="evenodd" xlink:href="#keeps-your-mac-secure-b"/>
  </g>
</svg>
