<?xml version="1.0" encoding="UTF-8"?>
<svg width="534px" height="534px" viewBox="0 0 534 534" version="1.1" xmlns="http://www.w3.org/2000/svg" xmlns:xlink="http://www.w3.org/1999/xlink">
    <!-- Generator: sketchtool 47.1 (45422) - http://www.bohemiancoding.com/sketch -->
    <title>8A9FDB3B-9735-4786-9D8F-DF99DE296C24</title>
    <desc>Created with sketchtool.</desc>
    <defs>
        <path d="M266.967846,513.999958 C266.978561,513.999986 266.989279,514 267,514 C403.414333,514 514,403.414333 514,267 C514,182.30498 471.027595,104.924327 401.301616,59.6698526 C395.742446,56.0617666 388.310917,57.6434328 384.702831,63.2026029 C381.094745,68.761773 382.676411,76.1933023 388.235581,79.8013883 C451.212481,120.675486 490,190.520391 490,267 C490,390.159499 390.159499,490 267,490 C266.990299,490 266.980601,490.000012 266.970905,490.000035 C266.961209,490.000009 266.951511,489.999995 266.94181,489.999993 C178.227729,489.977365 99.0665719,437.67936 63.402341,358.120712 C60.6913564,352.073133 53.5911372,349.368288 47.5435577,352.079273 C41.4959782,354.790258 38.7911336,361.890477 41.5021182,367.938056 C80.9996386,456.047886 168.681222,513.974931 266.935688,513.999992 C266.94641,513.999995 266.957129,513.999983 266.967844,513.999958 Z" id="path-1"></path>
        <filter x="-3.8%" y="-2.6%" width="107.6%" height="107.9%" filterUnits="objectBoundingBox" id="filter-2">
            <feOffset dx="0" dy="6" in="SourceAlpha" result="shadowOffsetOuter1"></feOffset>
            <feGaussianBlur stdDeviation="5" in="shadowOffsetOuter1" result="shadowBlurOuter1"></feGaussianBlur>
            <feColorMatrix values="0 0 0 0 0.168627451   0 0 0 0 0.168627451   0 0 0 0 0.22745098  0 0 0 0.16 0" type="matrix" in="shadowBlurOuter1"></feColorMatrix>
        </filter>
    </defs>
    <g id="Landing-page" stroke="none" stroke-width="1" fill="none" fill-rule="evenodd">
        <g id="circles" fill-rule="nonzero">
            <g id="outer-circle">
                <g>
                    <path d="M267,534 C119.539972,534 0,414.460028 0,267 C0,119.539972 119.539972,0 267,0 C414.460028,0 534,119.539972 534,267 C534,414.460028 414.460028,534 267,534 Z" id="Bubble2-Copy-16" fill-opacity="0.00999999978" fill="#FFFFFF"></path>
                    <g id="Bubble2-Copy-14">
                        <use fill="black" fill-opacity="1" filter="url(#filter-2)" xlink:href="#path-1"></use>
                        <use fill="#4A90E2" fill-rule="evenodd" xlink:href="#path-1"></use>
                    </g>
                </g>
            </g>
        </g>
    </g>
</svg>